<svg width="2160" height="2160" viewBox="0 0 2160 2160" fill="none" xmlns="http://www.w3.org/2000/svg">
<g clip-path="url(#clip0_301_217)">
<rect x="486" y="1005" width="817" height="100" fill="#734002"/>
<path d="M2827.47 1069.95H-3479.64V1772.37H2827.47V1069.95Z" fill="url(#paint0_linear_301_217)"/>
<path d="M-3556.12 1457.58H-591.572C-465.743 1447.22 -339.275 1447.22 -213.446 1457.58C-87.5113 1475.53 38.1033 1397.02 162.436 1457.58C286.769 1455.02 409.82 1485.78 530.948 1457.58H887.39C1933.64 1457.58 2816.9 1252.07 2816.9 1252.07L2750.99 2160H-3556.12V1457.58Z" fill="url(#paint1_linear_301_217)"/>
<g style="mix-blend-mode:color-dodge" opacity="0.34">
<path d="M2827.47 1069.95V1198.66H2079.87L1225.35 1123.89L691.705 1155.94L-131.198 1166.62L-323.893 1155.94L-1893.65 1262.75L-1733.42 1316.16L-3335.65 1433.66L-3479.64 1435.58L-1915.01 1305.48L-2064.55 1252.07L-774.759 1155.94H-2195.72L-2342.27 1123.89L-2919.07 1145.26L-3479.64 1101.14V1069.95H2827.47Z" fill="#734002"/>
</g>
<path d="M2528.51 1628.27V1378.43C2528.51 1378.43 901.178 1390.93 873.833 1339.66C849.693 1294.8 -1943.2 1304.94 -1983.15 1198.66C-2026.09 1084.9 -3216.33 1178.58 -3469.69 1102.53C-3602.68 1248.22 -2141.45 1168.86 -2124.79 1218C-2088.47 1323.96 -1404.85 1317.65 -1404.85 1317.65C-1404.85 1317.65 -1114.74 1322.67 -748.046 1364.55C-357.851 1409.09 46.2307 1455.02 51.0374 1455.02C60.1167 1455.02 -75 1529.5 -75 1529.5L51.0374 1737.5L294 1891.5L408.5 1936.5C537.333 1946 926.739 1934.97 1034.5 1923C1183 1906.5 1748 1800.5 1748 1800.5C1748 1800.5 1961.5 1775 1961.5 1812.5L2528.51 1628.27Z" fill="url(#paint2_linear_301_217)"/>
<g style="mix-blend-mode:lighten" opacity="0.2">
<path d="M2496.46 1621.86L2528.5 1317.87C2528.5 1317.87 901.176 1371.06 873.724 1315.2C855.245 1277.6 -323.352 1288.81 -1105.02 1273.43L792.866 1330.47L900.535 1362.52C900.535 1362.52 1357.81 1392.85 1349.16 1406.1C1340.51 1419.34 370.092 1356.43 285.494 1350.87C331.104 1354.83 624.204 1380.46 590.344 1406.1C563 1426.93 -306.475 1373.52 -748.048 1342.65C-357.746 1390.93 46.8691 1440.92 51.0349 1440.92C55.2007 1440.92 119.824 1455.13 194.06 1471.58C266.842 1487.84 405.057 1549.76 479.5 1584.5C638 1646.5 514 1646.5 514 1646.5L98 1652C228.833 1663.5 434.7 1710.4 211.5 1806L408 1965.5H447C460.244 1971.83 547.958 1982.8 792.866 1976C1099 1967.5 1571 1874 1641 1854.5C1697 1838.9 1814 1835 1865.5 1835H1875.5L2021.5 1734L2496.46 1621.86Z" fill="white"/>
</g>
<g style="mix-blend-mode:multiply" opacity="0.18">
<path d="M2528.51 1387.51V1628.27L2006.18 1606.91L2395.52 1602.64C2395.52 1602.64 793.295 1545.6 786.672 1526.58C780.05 1507.57 1971.14 1564.61 1971.14 1539.3C1971.14 1513.98 1097.08 1501.27 1090.67 1482.26C1084.26 1463.24 1743.09 1488.56 1743.09 1475.95C1743.09 1463.35 2078.81 1469.55 2078.81 1450.53C2078.81 1431.52 1614.38 1400.54 1574.22 1403.43C1534.06 1406.31 1302.16 1370.74 1302.16 1370.74L2528.51 1387.51Z" fill="#D98E04"/>
</g>
<g style="mix-blend-mode:multiply" opacity="0.18">
<path d="M2128.86 1610.77V1851.53L1606.54 1830.17L1995.88 1825.9C1995.88 1825.9 393.65 1768.86 387.028 1749.84C380.405 1730.83 1571.5 1787.87 1571.5 1762.55C1571.5 1737.24 697.432 1724.53 691.023 1705.51C684.615 1686.5 1343.45 1711.82 1343.45 1699.21C1343.45 1686.61 1679.17 1692.8 1679.17 1673.79C1679.17 1654.78 1214.74 1623.8 1174.58 1626.69C1134.41 1629.57 902.517 1594 902.517 1594L2128.86 1610.77Z" fill="#D98E04"/>
</g>
<g style="mix-blend-mode:lighten">
<g style="mix-blend-mode:lighten" opacity="0.18">
<path d="M907.059 1454.06C881.889 1458.33 856.178 1458.33 831.007 1454.06C856.178 1449.78 881.889 1449.78 907.059 1454.06Z" fill="white"/>
</g>
<g style="mix-blend-mode:lighten" opacity="0.18">
<path d="M837.303 1479.37C837.303 1481.19 820.319 1482.58 799.384 1482.58C778.448 1482.58 761.357 1481.19 761.357 1479.37C786.504 1475.24 812.156 1475.24 837.303 1479.37Z" fill="white"/>
</g>
<g style="mix-blend-mode:lighten" opacity="0.18">
<path d="M729.631 1438.25C750.632 1438.25 767.657 1436.81 767.657 1435.04C767.657 1433.27 750.632 1431.84 729.631 1431.84C708.629 1431.84 691.604 1433.27 691.604 1435.04C691.604 1436.81 708.629 1438.25 729.631 1438.25Z" fill="white"/>
</g>
<g style="mix-blend-mode:lighten" opacity="0.18">
<path d="M808.79 1425.54C842.003 1425.54 868.927 1424.1 868.927 1422.33C868.927 1420.56 842.003 1419.13 808.79 1419.13C775.578 1419.13 748.653 1420.56 748.653 1422.33C748.653 1424.1 775.578 1425.54 808.79 1425.54Z" fill="white"/>
</g>
<g style="mix-blend-mode:lighten" opacity="0.18">
<path d="M929.167 1450.85C962.38 1450.85 989.304 1449.42 989.304 1447.65C989.304 1445.88 962.38 1444.44 929.167 1444.44C895.955 1444.44 869.03 1445.88 869.03 1447.65C869.03 1449.42 895.955 1450.85 929.167 1450.85Z" fill="white"/>
</g>
<g style="mix-blend-mode:lighten" opacity="0.18">
<path d="M1084.37 1482.58C1084.37 1486.1 1041.64 1488.88 989.41 1488.88C937.178 1488.88 894.345 1486.1 894.345 1482.58C894.345 1479.05 937.071 1476.27 989.41 1476.27C1041.75 1476.27 1084.37 1479.05 1084.37 1482.58Z" fill="white"/>
</g>
<g style="mix-blend-mode:lighten" opacity="0.18">
<path d="M799.385 1463.56C799.385 1467.09 753.989 1469.87 698.018 1469.87C642.047 1469.87 596.65 1467.09 596.65 1463.56C596.65 1460.04 642.047 1457.26 698.018 1457.26C753.989 1457.26 799.385 1460.04 799.385 1463.56Z" fill="white"/>
</g>
</g>
<path fill-rule="evenodd" clip-rule="evenodd" d="M1798.31 1057.99L1499.55 183.279H1482.14L775.026 1055.32L1798.31 1057.99Z" fill="url(#paint3_linear_301_217)"/>
<path fill-rule="evenodd" clip-rule="evenodd" d="M1499.55 183.279H1511.52L2147.49 1055.53L1756.55 1057.88L1638.2 633.291L1630.08 618.871L1517.5 286.035L1523.48 264.672L1499.55 183.279Z" fill="url(#paint4_linear_301_217)"/>
<path fill-rule="evenodd" clip-rule="evenodd" d="M1630.08 618.872L1592.37 633.292H1638.2H1693.85L1630.08 618.872Z" fill="#A65D03"/>
<path fill-rule="evenodd" clip-rule="evenodd" d="M1499.55 287.211L1517.5 286.036L1558.84 286.677L1523.48 264.673L1499.55 287.211Z" fill="#A65D03"/>
<g style="mix-blend-mode:soft-light" opacity="0.3">
<path fill-rule="evenodd" clip-rule="evenodd" d="M1576.78 458.649L1419.01 467.088L1439.1 514.407H1592.38L1576.78 458.649Z" fill="#D98E04"/>
</g>
<g style="mix-blend-mode:multiply">
<path fill-rule="evenodd" clip-rule="evenodd" d="M1657.86 704.11L1888.37 700.158L1979.8 825.559H1847.56L1852.05 841.047H1991.12L2023.38 885.375L1711.48 896.163L1657.86 704.11Z" fill="#A65D03"/>
</g>
<g style="mix-blend-mode:soft-light" opacity="0.3">
<path fill-rule="evenodd" clip-rule="evenodd" d="M1776.52 702.08L1743.95 633.291L1834.31 626.135L1888.36 700.157L1776.52 702.08Z" fill="#D98E04"/>
</g>
<g style="mix-blend-mode:multiply">
<path fill-rule="evenodd" clip-rule="evenodd" d="M1456.4 379.712L1546.02 370.312L1657.86 384.092L1718.21 466.766L1571.87 447.006L1449.14 448.394L1456.4 379.712Z" fill="#A65D03"/>
</g>
<g style="mix-blend-mode:multiply">
<path fill-rule="evenodd" clip-rule="evenodd" d="M2061.08 936.966L1900.64 936.219L1924.36 1016.86L2114.7 1010.46L2061.08 936.966Z" fill="#A65D03"/>
</g>
<g style="mix-blend-mode:soft-light" opacity="0.3">
<path fill-rule="evenodd" clip-rule="evenodd" d="M1900.64 936.219H1722.69L1740.95 1016.86H1924.35L1900.64 936.219Z" fill="#D98E04"/>
</g>
<path fill-rule="evenodd" clip-rule="evenodd" d="M1481.93 1074.86L1170.99 93.8751H1151.76L668.421 723.123L657.206 724.939L373.291 1053.29L1481.93 1074.86Z" fill="url(#paint5_linear_301_217)"/>
<path fill-rule="evenodd" clip-rule="evenodd" d="M1170.98 93.8751H1184.12L1977.22 1068.46L1481.92 1074.86L1437.38 942.094L1425.1 932.587L1410.78 879.607L1408.75 855.68L1348.19 669.074L1330.67 660.956L1170.98 93.8751Z" fill="url(#paint6_linear_301_217)"/>
<path fill-rule="evenodd" clip-rule="evenodd" d="M988.116 312.312H1013.22L1016.1 356.96L1112.02 399.259L1144.92 396.802L1210.93 367.749L1250.24 356.96L1356.09 360.485L1383.44 380.46L1418.58 399.259L1431.61 392.423L1186.68 88H1152.61L979.998 301.737L988.116 312.312Z" fill="url(#paint7_linear_301_217)"/>
<path fill-rule="evenodd" clip-rule="evenodd" d="M1431.61 392.423L1186.68 88H1170.56L1250.67 347.667L1220.23 350.979L1151.86 381.207L1112.56 384.305L1017.06 349.697L1012.79 305.048L979.998 301.737L988.116 312.312H1013.22L1016.1 356.96L1112.02 399.259L1144.92 396.802L1210.93 367.749L1250.24 356.96L1356.09 360.485L1383.44 380.46L1418.58 399.259L1431.61 392.423Z" fill="url(#paint8_linear_301_217)"/>
<path fill-rule="evenodd" clip-rule="evenodd" d="M1431.61 392.423L1405.44 382.276L1359.51 350.445L1302.15 345.424L1250.67 347.668L1220.23 350.979L1151.86 381.207L1112.56 384.305L1017.06 349.697L1012.79 305.048L979.998 301.737L988.116 312.312L1011.51 309.962L1016.1 356.96L1112.02 399.259L1144.92 396.802L1233.47 361.019L1251.31 360.485L1344.24 359.951L1356.09 360.485L1383.44 380.46L1418.58 399.259L1431.61 392.423Z" fill="url(#paint9_linear_301_217)"/>
<g style="mix-blend-mode:soft-light" opacity="0.3">
<path fill-rule="evenodd" clip-rule="evenodd" d="M687.332 699.944L1136.06 692.146L1149.52 584.37H1030.85L1035.87 566.211H1064.92L1080.41 519.96L846.594 491.12L687.332 699.944Z" fill="#D98E04"/>
</g>
<path fill-rule="evenodd" clip-rule="evenodd" d="M1408.76 855.679L1159.66 861.661L1409.72 867.643H1541.1L1408.76 855.679Z" fill="#A65D03"/>
<path fill-rule="evenodd" clip-rule="evenodd" d="M1387.71 931.839H1466.97L1437.38 942.094L1387.71 931.839Z" fill="#F2BB16"/>
<path fill-rule="evenodd" clip-rule="evenodd" d="M1294.14 659.46L1350.43 676.337L1389.74 659.46H1294.14Z" fill="#F2BB16"/>
<path fill-rule="evenodd" clip-rule="evenodd" d="M657.206 724.938H701.855L672.267 718.422L657.206 724.938Z" fill="#D98E04"/>
<g style="mix-blend-mode:soft-light" opacity="0.3">
<path fill-rule="evenodd" clip-rule="evenodd" d="M1408.76 855.68L1364 718.422L910.145 741.281L857.913 855.68H1408.76Z" fill="#D98E04"/>
</g>
<g style="mix-blend-mode:multiply">
<path fill-rule="evenodd" clip-rule="evenodd" d="M1699.72 1072.09L1626.98 999.24L1453.09 989.199H1070.15L1062.14 1066.21L1481.93 1074.86L1699.72 1072.09Z" fill="#A65D03"/>
</g>
<g style="mix-blend-mode:multiply">
<path fill-rule="evenodd" clip-rule="evenodd" d="M1644.07 989.198L1594.08 894.88H1743.09L1727.17 874.692H1646.85L1611.81 810.924L1748.22 803.019L1907.9 989.198H1644.07Z" fill="#A65D03"/>
</g>
<g style="mix-blend-mode:soft-light" opacity="0.3">
<path fill-rule="evenodd" clip-rule="evenodd" d="M1368.28 731.668L1630.51 741.281L1683.27 806.759H1392.74L1368.28 731.668Z" fill="#D98E04"/>
</g>
<g style="mix-blend-mode:multiply">
<path fill-rule="evenodd" clip-rule="evenodd" d="M1313.26 601.247L1595.15 618.872L1621.21 665.443L1330.67 660.957L1313.26 601.247Z" fill="#A65D03"/>
</g>
<g style="mix-blend-mode:multiply">
<path fill-rule="evenodd" clip-rule="evenodd" d="M1430.01 413.679L1336.22 400.541L1358.44 462.387L1448.91 467.087L1455.11 477.448L1272.03 458.648L1291.04 524.553L1525.39 533.098L1430.01 413.679Z" fill="#A65D03"/>
</g>
<g style="mix-blend-mode:soft-light" opacity="0.3">
<path fill-rule="evenodd" clip-rule="evenodd" d="M1427.77 529.573L1479.14 609.577L1595.15 618.87L1525.4 533.098L1427.77 529.573Z" fill="#D98E04"/>
</g>
<g style="mix-blend-mode:multiply">
<path fill-rule="evenodd" clip-rule="evenodd" d="M1007.45 514.513L1047.19 438.46L1264.34 430.876L1291.05 524.553L1007.45 514.513Z" fill="#A65D03"/>
</g>
<g style="mix-blend-mode:soft-light" opacity="0.3">
<path fill-rule="evenodd" clip-rule="evenodd" d="M731.447 867.643H1063.75L1054.14 942.093L694.488 931.839L731.447 867.643Z" fill="#D98E04"/>
</g>
<g style="mix-blend-mode:multiply">
<path fill-rule="evenodd" clip-rule="evenodd" d="M1153.04 233.055L1142.36 310.816L1233.47 292.764L1373.4 321.605L1310.27 243.629L1212.65 225.685L1153.04 233.055Z" fill="#A65D03"/>
</g>
<g style="mix-blend-mode:multiply">
<path fill-rule="evenodd" clip-rule="evenodd" d="M963.548 738.611L986.406 694.71L1209.86 692.147L1203.13 726.541L963.548 738.611Z" fill="#A65D03"/>
</g>
<g style="mix-blend-mode:soft-light" opacity="0.3">
<path fill-rule="evenodd" clip-rule="evenodd" d="M1143.11 989.199L1156.04 958.757H1346.49L1348.84 986.315L1143.11 989.199Z" fill="#D98E04"/>
</g>
<g style="mix-blend-mode:multiply">
<path fill-rule="evenodd" clip-rule="evenodd" d="M1020.27 252.815L1212.65 225.684L1188.51 152.836L1093.12 162.877L1020.27 252.815Z" fill="#A65D03"/>
</g>
<g style="mix-blend-mode:multiply">
<path fill-rule="evenodd" clip-rule="evenodd" d="M1336.76 719.812L1329.71 692.147H1355.56L1466.33 702.081L1468.25 719.812L1364 718.423L1336.76 719.812Z" fill="#D98E04"/>
</g>
<g style="mix-blend-mode:multiply">
<path fill-rule="evenodd" clip-rule="evenodd" d="M1236.03 601.247H1313.26L1424.45 608.19L1407.15 583.622L1303.86 568.775L1233.79 574.222L1236.03 601.247Z" fill="#D98E04"/>
</g>
<g style="mix-blend-mode:soft-light">
<path fill-rule="evenodd" clip-rule="evenodd" d="M850.538 697.06L884.612 704.11L913.772 695.992L850.538 697.06Z" fill="#F2BB16"/>
</g>
<path fill-rule="evenodd" clip-rule="evenodd" d="M715.631 865.721L729.303 871.382L760.279 867.644L715.631 865.721Z" fill="#D98E04"/>
<path fill-rule="evenodd" clip-rule="evenodd" d="M975.084 939.85L1046.86 942.628H997.195L975.084 939.85Z" fill="#D98E04"/>
<path fill-rule="evenodd" clip-rule="evenodd" d="M1032.34 936.538H1058.94L1046.87 942.627L1032.34 936.538Z" fill="#D98E04"/>
<path fill-rule="evenodd" clip-rule="evenodd" d="M1258.25 523.378L1291.04 524.553L1276.94 529.574L1258.25 523.378Z" fill="#D98E04"/>
<g style="mix-blend-mode:soft-light">
<path fill-rule="evenodd" clip-rule="evenodd" d="M957.248 418.592H987.263L972.629 425.108L957.248 418.592Z" fill="#F2BB16"/>
</g>
<g style="mix-blend-mode:soft-light">
<path fill-rule="evenodd" clip-rule="evenodd" d="M1076.78 519.747L1102.95 521.243L1087.99 524.554L1076.78 519.747Z" fill="#F2BB16"/>
</g>
<g style="mix-blend-mode:soft-light">
<path fill-rule="evenodd" clip-rule="evenodd" d="M1006.81 418.593H1061.18L1040.45 413.039L1006.81 418.593Z" fill="#F2BB16"/>
</g>
<g style="mix-blend-mode:soft-light">
<path fill-rule="evenodd" clip-rule="evenodd" d="M1100.59 561.617H1155.71L1134.67 556.17L1100.59 561.617Z" fill="#F2BB16"/>
</g>
<g style="mix-blend-mode:soft-light">
<path fill-rule="evenodd" clip-rule="evenodd" d="M1211.36 988.771L1290.08 989.305L1251.31 995.5L1211.36 988.771Z" fill="#F2BB16"/>
</g>
<g style="mix-blend-mode:multiply">
<path fill-rule="evenodd" clip-rule="evenodd" d="M846.584 491.12L871.578 458.648L948.912 467.086L940.047 491.227L846.584 491.12Z" fill="#D98E04"/>
</g>
<g style="mix-blend-mode:multiply">
<path fill-rule="evenodd" clip-rule="evenodd" d="M875.216 1063.12L373.291 1053.29L655.497 726.434L669.81 719.918L875.216 1063.12Z" fill="#A65D03"/>
</g>
<path fill-rule="evenodd" clip-rule="evenodd" d="M508.738 1067.49L301.089 524.445L288.378 513.337L-36.3399 902.25L-54.8187 909.407L-199.34 1067.49H508.738Z" fill="url(#paint10_linear_301_217)"/>
<path fill-rule="evenodd" clip-rule="evenodd" d="M508.739 1067.49L750.034 1061.94L310.918 524.445L288.38 513.337L301.091 524.445L428.628 860.165L426.705 873.517L470.606 967.835L475.84 998.918L481.501 1001.05L508.739 1067.49Z" fill="url(#paint11_linear_301_217)"/>
<path fill-rule="evenodd" clip-rule="evenodd" d="M-54.8154 909.407L122.497 910.475L-38.6863 902.251L-54.8154 909.407Z" fill="#F2BB16"/>
<g style="mix-blend-mode:multiply">
<path fill-rule="evenodd" clip-rule="evenodd" d="M147.808 681.784L279.831 673.666L283.997 646.428L237.853 650.167L242.446 637.563L340.609 628.697L402.134 636.174L365.07 590.778L301.088 524.445L288.377 513.337L215.849 600.391L272.674 596.332L268.081 604.45L209.013 608.402L147.808 681.784Z" fill="#A65D03"/>
</g>
<g style="mix-blend-mode:soft-light" opacity="0.3">
<path fill-rule="evenodd" clip-rule="evenodd" d="M282.288 860.166L299.806 790.416H402.775L428.625 860.166H282.288Z" fill="#D98E04"/>
</g>
<g style="mix-blend-mode:soft-light" opacity="0.3">
<path fill-rule="evenodd" clip-rule="evenodd" d="M269.155 734.657H103.592L130.296 702.613H368.707L380.35 731.025L269.155 734.657Z" fill="#D98E04"/>
</g>
<g style="mix-blend-mode:soft-light" opacity="0.3">
<path fill-rule="evenodd" clip-rule="evenodd" d="M-142.193 1005.01H208.374L190.215 1038.55H33.0899L7.77473 1067.49H-199.34L-142.193 1005.01Z" fill="#D98E04"/>
</g>
<g style="mix-blend-mode:multiply">
<path fill-rule="evenodd" clip-rule="evenodd" d="M174.835 1067.49L208.375 1005.01H483.103L508.739 1067.49H174.835Z" fill="#A65D03"/>
</g>
<g style="mix-blend-mode:multiply">
<path fill-rule="evenodd" clip-rule="evenodd" d="M560.227 1066.32L550.4 1036.3L726.218 1032.89L750.038 1061.94L560.227 1066.32Z" fill="#A65D03"/>
</g>
<path fill-rule="evenodd" clip-rule="evenodd" d="M428.627 860.165H362.722L426.704 873.517L428.627 860.165Z" fill="#D98E04"/>
<path fill-rule="evenodd" clip-rule="evenodd" d="M443.365 995.821L483.1 1005.01L492.5 995.821H443.365Z" fill="#F2BB16"/>
<g style="mix-blend-mode:soft-light" opacity="0.3">
<path fill-rule="evenodd" clip-rule="evenodd" d="M470.609 967.835H673.13L626.239 910.475L426.708 873.517L470.609 967.835Z" fill="#D98E04"/>
</g>
<path fill-rule="evenodd" clip-rule="evenodd" d="M426.704 873.517L362.722 860.165H428.627L460.244 873.517H426.704Z" fill="#A65D03"/>
<g style="mix-blend-mode:soft-light" opacity="0.3">
<path fill-rule="evenodd" clip-rule="evenodd" d="M-38.6904 902.249L69.1925 910.154L154.645 773.11H185.087L198.011 743.736H96.0032L-38.6904 902.249Z" fill="#D98E04"/>
</g>
<g style="mix-blend-mode:multiply">
<path fill-rule="evenodd" clip-rule="evenodd" d="M601.134 1035.24L571.439 967.835H673.127L726.214 1032.89L601.134 1035.24Z" fill="#D98E04"/>
</g>
<g style="mix-blend-mode:multiply">
<path fill-rule="evenodd" clip-rule="evenodd" d="M380.349 731.026L482.678 734.657L541.32 806.437L402.78 790.415H341.789V734.657L380.349 731.026Z" fill="#A65D03"/>
</g>
<g style="mix-blend-mode:multiply">
<path fill-rule="evenodd" clip-rule="evenodd" d="M117.477 988.877L122.497 964.203L288.381 967.835V988.877H117.477Z" fill="#D98E04"/>
</g>
<g style="mix-blend-mode:multiply">
<path fill-rule="evenodd" clip-rule="evenodd" d="M467.931 797.999L477.33 815.517L550.392 817.653L541.313 806.438L467.931 797.999Z" fill="#D98E04"/>
</g>
<path fill-rule="evenodd" clip-rule="evenodd" d="M297.883 967.835H334.093L316.042 964.203L297.883 967.835Z" fill="#F2BB16"/>
<path fill-rule="evenodd" clip-rule="evenodd" d="M355.461 947.54L375.542 934.081L395.624 939.315L355.461 947.54Z" fill="#F2BB16"/>
<path fill-rule="evenodd" clip-rule="evenodd" d="M447.323 906.95L486.097 910.155L437.816 910.475L447.323 906.95Z" fill="#F2BB16"/>
<path fill-rule="evenodd" clip-rule="evenodd" d="M11.8379 842.755H79.6652L21.4515 831.432L11.8379 842.755Z" fill="#F2BB16"/>
<g style="mix-blend-mode:soft-light">
<path fill-rule="evenodd" clip-rule="evenodd" d="M164.259 789.133H191.817L198.012 790.414L218.413 797.998L174.833 793.512L164.259 789.133Z" fill="#F2BB16"/>
</g>
<g style="mix-blend-mode:soft-light">
<path fill-rule="evenodd" clip-rule="evenodd" d="M218.417 774.606H253.453L232.624 775.994L218.417 774.606Z" fill="#F2BB16"/>
</g>
<g style="mix-blend-mode:soft-light">
<path fill-rule="evenodd" clip-rule="evenodd" d="M274.923 693.427H297.034L288.382 696.311L274.923 693.427Z" fill="#F2BB16"/>
</g>
<g style="mix-blend-mode:soft-light">
<path fill-rule="evenodd" clip-rule="evenodd" d="M263.699 649.74H294.782L282.926 653.158L263.699 649.74Z" fill="#F2BB16"/>
</g>
<g style="mix-blend-mode:soft-light">
<path fill-rule="evenodd" clip-rule="evenodd" d="M284.957 680.823L304.718 679.328L313.69 681.571L284.957 680.823Z" fill="#F2BB16"/>
</g>
<g style="mix-blend-mode:soft-light">
<path fill-rule="evenodd" clip-rule="evenodd" d="M79.6631 884.412L117.476 887.617L98.5696 891.996L79.6631 884.412Z" fill="#F2BB16"/>
</g>
<g style="mix-blend-mode:multiply">
<path fill-rule="evenodd" clip-rule="evenodd" d="M309.096 649.739V662.984H353.637L348.083 648.137L309.096 649.739Z" fill="#D98E04"/>
</g>
<path fill-rule="evenodd" clip-rule="evenodd" d="M-1303.92 1074.86L-1210.13 1036.41L-1149.14 976.594L-877.617 1047.95L-696.139 1029.68L-630.447 1057.88L-605.773 1047.95L-514.766 976.594L-376.227 954.804L-378.257 976.594H-333.288L-262.256 1057.99L140.437 1052.33L169.491 1057.99L907.904 1074.86L1392.1 1066.21L1640.76 999.239L1683.81 995.501V1032.03L1817.75 954.804L1956.83 942.627L1977.34 958.756L1969.54 985.78L1978.19 997.423L1956.83 1029.68L2131.04 1008.75H2190.97L2325.55 1098.68L-1303.92 1074.86Z" fill="url(#paint12_linear_301_217)"/>
<path fill-rule="evenodd" clip-rule="evenodd" d="M1683.81 995.5L1640.77 999.238L1392.1 1066.21L1448.71 1071.45L1635.43 1057.99L1683.81 995.5Z" fill="#A65D03"/>
<path fill-rule="evenodd" clip-rule="evenodd" d="M1683.81 1032.03L1660.63 1052.33L1871.59 1022.31L1883.55 1016.86L1966.98 958.756L1956.83 942.627L1817.76 954.804L1683.81 1032.03Z" fill="#A65D03"/>
<path fill-rule="evenodd" clip-rule="evenodd" d="M1956.83 1029.68L1930.23 1055.85L1883.55 1066.21H2046.45L2162.66 1035.77L2190.97 1008.74H2131.04L1956.83 1029.68Z" fill="#A65D03"/>
<g style="mix-blend-mode:multiply">
<path fill-rule="evenodd" clip-rule="evenodd" d="M1803.34 1080.2L1813.8 1052.33L1871.59 1037.48V1022.31L1883.55 1016.86L1966.98 958.756H1977.34L1969.54 985.78L1978.19 997.423L1956.83 1029.68L1930.23 1055.85L1883.55 1066.21V1079.56L1803.34 1080.2Z" fill="#A65D03"/>
</g>
<path fill-rule="evenodd" clip-rule="evenodd" d="M1969.54 985.78L1917.09 1021.78L1871.59 1037.48L1813.8 1052.33L1927.88 1036.41L1978.19 997.423L1969.54 985.78Z" fill="#734002"/>
<g style="mix-blend-mode:multiply">
<path fill-rule="evenodd" clip-rule="evenodd" d="M1635.42 1057.99L1640.76 1079.24H1653.58L1660.63 1052.33L1683.8 1032.03V995.5L1635.42 1057.99Z" fill="#A65D03"/>
</g>
<path d="M686.5 1068.5L720.5 1065.5L894 1066.5L1143.5 1069L1166 1069.5H1185L1187.5 1071L1122 1078.5L841 1080.5L728 1079.5L684.5 1076L686.5 1068.5Z" fill="#734002"/>
</g>
<defs>
<linearGradient id="paint0_linear_301_217" x1="1913.5" y1="2199.5" x2="-1020.5" y2="1242.5" gradientUnits="userSpaceOnUse">
<stop stop-color="#C17979"/>
<stop offset="0.0001" stop-color="#1D1D1D"/>
<stop offset="1" stop-color="#A65D03"/>
</linearGradient>
<linearGradient id="paint1_linear_301_217" x1="416" y1="2059" x2="1999" y2="1932" gradientUnits="userSpaceOnUse">
<stop stop-color="#734002"/>
<stop offset="1" stop-color="#0D0A00"/>
</linearGradient>
<linearGradient id="paint2_linear_301_217" x1="-60" y1="1438" x2="1538" y2="1591" gradientUnits="userSpaceOnUse">
<stop stop-color="#FEDC03"/>
<stop offset="1" stop-color="#D98E04"/>
</linearGradient>
<linearGradient id="paint3_linear_301_217" x1="1286.67" y1="1057.99" x2="1286.67" y2="183.386" gradientUnits="userSpaceOnUse">
<stop stop-color="#1D1D1D"/>
<stop offset="1" stop-color="#A65D03"/>
</linearGradient>
<linearGradient id="paint4_linear_301_217" x1="1823.63" y1="1057.88" x2="1823.63" y2="183.386" gradientUnits="userSpaceOnUse">
<stop stop-color="#734002"/>
<stop offset="0.99" stop-color="#452716"/>
</linearGradient>
<linearGradient id="paint5_linear_301_217" x1="927.661" y1="1074.97" x2="927.661" y2="93.9818" gradientUnits="userSpaceOnUse">
<stop offset="0.06" stop-color="#A65D03"/>
<stop offset="1" stop-color="#D98E04"/>
</linearGradient>
<linearGradient id="paint6_linear_301_217" x1="-80065.7" y1="199647" x2="-80065.7" y2="109553" gradientUnits="userSpaceOnUse">
<stop stop-color="#D98E04"/>
<stop offset="0.99" stop-color="#452716"/>
</linearGradient>
<linearGradient id="paint7_linear_301_217" x1="979.998" y1="243.63" x2="1431.61" y2="243.63" gradientUnits="userSpaceOnUse">
<stop stop-color="#F2BB16"/>
<stop offset="1" stop-color="#A65D03"/>
</linearGradient>
<linearGradient id="paint8_linear_301_217" x1="307973" y1="4623.05" x2="327068" y2="4623.05" gradientUnits="userSpaceOnUse">
<stop stop-color="#452716"/>
<stop offset="0.99" stop-color="#1C0035"/>
<stop offset="0.9901" stop-color="#010D00"/>
</linearGradient>
<linearGradient id="paint9_linear_301_217" x1="979.998" y1="350.552" x2="1431.61" y2="350.552" gradientUnits="userSpaceOnUse">
<stop offset="0.38" stop-color="#A65D03"/>
<stop offset="0.99" stop-color="#010D00"/>
</linearGradient>
<linearGradient id="paint10_linear_301_217" x1="154.752" y1="1067.49" x2="154.752" y2="513.337" gradientUnits="userSpaceOnUse">
<stop offset="0.06" stop-color="#A65D03"/>
<stop offset="1" stop-color="#D98E04"/>
</linearGradient>
<linearGradient id="paint11_linear_301_217" x1="-634.929" y1="112852" x2="-634.929" y2="84102.3" gradientUnits="userSpaceOnUse">
<stop stop-color="#3A1645"/>
<stop offset="0.99" stop-color="#452716"/>
</linearGradient>
<linearGradient id="paint12_linear_301_217" x1="2.30646e+06" y1="15708.7" x2="2.30646e+06" y2="13428.7" gradientUnits="userSpaceOnUse">
<stop stop-color="#3A1645"/>
<stop offset="0.99" stop-color="#734002"/>
</linearGradient>
<clipPath id="clip0_301_217">
<path d="M0 0H2160V1080C2160 1676.47 1676.47 2160 1080 2160V2160C483.532 2160 0 1676.47 0 1080V0Z" fill="white"/>
</clipPath>
</defs>
</svg>
